<?xml version="1.0" encoding="utf-8"?>
<!-- Generator: Adobe Illustrator 19.0.0, SVG Export Plug-In . SVG Version: 6.00 Build 0)  -->
<svg version="1.1" id="レイヤー_1" xmlns="http://www.w3.org/2000/svg" xmlns:xlink="http://www.w3.org/1999/xlink" x="0px"
	 y="0px" viewBox="-165 227.8 627.8 107.2" style="enable-background:new -165 227.8 627.8 107.2;" xml:space="preserve">
<path id="XMLID_3_" d="M-143.2,317.6v-1.9c3.8-0.1,6.3-0.7,7.4-1.8c1.1-1,1.7-3.2,1.7-6.6v-41.6c0-3.3-0.6-5.5-1.9-6.6
	c-1.3-1.2-3.7-1.7-7.3-1.7v-2h51.7l1,14.7h-1.9c-0.7-4.2-2-7.1-3.9-8.6c-1.9-1.6-5.1-2.4-9.6-2.4h-13.2c-1.8,0-3.1,0.3-3.8,1
	c-0.7,0.7-1.1,1.8-1.1,3.5v16.8c0,1.4,0.2,2.3,0.5,2.6s1.1,0.5,2.4,0.5h8.3c4.7,0,7.9-0.6,9.4-1.8c1.5-1.2,2.3-3.6,2.3-7h1.9v22.1
	h-1.9c-0.3-3.9-1.1-6.5-2.4-7.7c-1.3-1.2-4.4-1.8-9.4-1.8h-8.3c-1.1,0-1.8,0.2-2.2,0.6s-0.6,1.1-0.6,2.1v17.3c0,3.3,0.7,5.5,2,6.7
	c1.3,1.2,4,1.8,7.9,1.9v1.9h-29V317.6z"/>
<path id="XMLID_5_" d="M-48.6,307.6c0,2.1,0.3,3.4,0.9,4.1c0.6,0.7,1.7,1,3.4,1c0.6,0,1,0,1.4,0c0.3,0,0.6,0,0.9,0v1.6
	c-1.9,0.4-4,1-6.4,1.8s-5,1.8-8,3V312c-2.6,2.3-5.1,4.1-7.3,5.1s-4.5,1.6-6.7,1.6c-4.2,0-7.1-1.2-8.8-3.6c-1.7-2.4-2.5-6.8-2.5-13.2
	v-16.1c0-3.6-0.4-5.8-1.3-6.7s-2.6-1.3-5-1.3h-0.4v-1.7l14.4-0.8v26.8c0,4,0.6,6.9,1.8,8.6c1.2,1.8,3.2,2.6,5.9,2.6
	c1.8,0,3.4-0.4,5.1-1.2c1.6-0.8,3.2-2,4.7-3.6v-23.8c0-3-0.4-4.9-1.3-5.7s-2.6-1.1-5.2-1.1v-1.7l14.4-0.8V307.6z"/>
<path id="XMLID_7_" d="M-38.1,317.6v-1.7c2.8-0.2,4.6-0.8,5.6-1.8s1.5-2.9,1.5-5.6v-22c0-2.6-0.4-4.3-1.1-5.1
	c-0.7-0.8-2.2-1.1-4.3-1.1h-1.5v-1.7c3.4-1,6.2-1.8,8.6-2.6c2.4-0.7,4.4-1.4,6.2-2.1v8.4c2.1-2.7,4.1-4.8,5.9-6.1
	c1.8-1.3,3.5-2,5.2-2c1.5,0,2.7,0.4,3.7,1.3c1,0.9,1.5,2,1.5,3.3c0,1.3-0.3,2.3-1,3c-0.7,0.8-1.5,1.1-2.6,1.1s-2.2-0.4-3.4-1.3
	c-1.2-0.8-2.1-1.3-2.6-1.3c-0.9,0-1.9,0.4-2.9,1.3s-2.2,2.4-3.7,4.4v23c0,2.5,0.5,4.2,1.5,5.1s3.1,1.4,6.2,1.5v1.7h-22.8V317.6z"/>
<path id="XMLID_9_" d="M-3.8,317.6v-1.7c2.6-0.1,4.3-0.6,5.2-1.4c0.8-0.8,1.3-2.7,1.3-5.6v-22.8c0-2.7-0.3-4.4-0.9-5
	c-0.6-0.6-1.9-0.9-3.8-0.9h-1.7v-1.7c1.6-0.2,3.5-0.7,5.7-1.4c2.2-0.7,5.1-1.7,8.7-3.2v7.1c2.6-2.4,5-4.1,7.4-5.2
	c2.3-1.1,4.7-1.6,7.1-1.6c3.9,0,6.7,1.2,8.3,3.7c1.6,2.4,2.5,6.8,2.5,13.1v19.3c0,2.1,0.4,3.5,1.3,4.3s2.4,1.2,4.6,1.3v1.7H21.6
	v-1.7c2.6-0.1,4.4-0.5,5.3-1.3c0.9-0.8,1.4-2.4,1.4-4.8v-18.9c0-4-0.6-6.9-1.8-8.7c-1.2-1.7-3.1-2.6-5.8-2.6c-1.8,0-3.5,0.4-5.2,1.2
	c-1.7,0.8-3.2,2-4.6,3.6v24.9c0,2.6,0.4,4.4,1.3,5.2s2.5,1.4,4.9,1.5v1.7H-3.8V317.6z"/>
<path id="XMLID_11_" d="M45.9,317.6v-1.7c2.6-0.1,4.3-0.5,5.2-1.4c0.8-0.8,1.3-2.7,1.3-5.6v-23.2c0-2.8-0.3-4.4-0.9-5
	c-0.6-0.6-1.8-0.9-3.6-0.9h-1.5v-1.7c1.6-0.2,3.6-0.7,6-1.4c2.4-0.7,5-1.6,8-2.7v35.3c0,2.7,0.4,4.5,1.3,5.3
	c0.8,0.9,2.5,1.3,4.9,1.3v1.7H45.9z M51.9,258c0-1.4,0.5-2.6,1.4-3.6c1-1,2.2-1.5,3.6-1.5c1.4,0,2.6,0.5,3.6,1.5s1.5,2.2,1.5,3.5
	c0,1.4-0.5,2.6-1.5,3.6s-2.2,1.5-3.6,1.5c-1.4,0-2.6-0.5-3.6-1.5C52.4,260.6,51.9,259.4,51.9,258z"/>
<path id="XMLID_14_" d="M70.2,278.5v-1.2c2.8-1.7,5.3-3.7,7.4-6.2c2.1-2.5,3.8-5.3,5.2-8.6h1.7v12.8h10.1v3.2H84.5V307
	c0,2.3,0.3,4,1,4.9c0.6,0.9,1.8,1.4,3.3,1.4c1.1,0,2.1-0.3,3.1-0.8c1-0.5,2-1.3,3-2.3l1.2,1.3c-1.8,2.5-3.5,4.3-5.3,5.4
	s-3.8,1.7-6,1.7c-2.8,0-4.9-0.8-6.2-2.4c-1.3-1.6-2-4.1-2-7.5v-30.2H70.2z"/>
<path id="XMLID_16_" d="M138.5,307.6c0,2.1,0.3,3.4,0.9,4.1c0.6,0.7,1.7,1,3.4,1c0.6,0,1,0,1.4,0c0.3,0,0.6,0,0.9,0v1.6
	c-1.9,0.4-4,1-6.4,1.8s-5,1.8-8,3V312c-2.6,2.3-5.1,4.1-7.3,5.1s-4.5,1.6-6.7,1.6c-4.2,0-7.1-1.2-8.8-3.6c-1.7-2.4-2.5-6.8-2.5-13.2
	v-16.1c0-3.6-0.4-5.8-1.3-6.7s-2.5-1.3-4.9-1.3h-0.4v-1.7l14.3-0.8v26.8c0,4,0.6,6.9,1.8,8.6c1.2,1.8,3.2,2.6,5.9,2.6
	c1.8,0,3.4-0.4,5.1-1.2c1.6-0.8,3.2-2,4.7-3.6v-23.8c0-3-0.4-4.9-1.3-5.7s-2.6-1.1-5.2-1.1v-1.7l14.4-0.8V307.6z"/>
<path id="XMLID_18_" d="M149,317.6v-1.7c2.8-0.2,4.6-0.8,5.6-1.8s1.5-2.9,1.5-5.6v-22c0-2.6-0.4-4.3-1.1-5.1
	c-0.7-0.8-2.2-1.1-4.3-1.1h-1.5v-1.7c3.4-1,6.2-1.8,8.6-2.6c2.4-0.7,4.4-1.4,6.2-2.1v8.4c2.1-2.7,4.1-4.8,5.9-6.1s3.5-2,5.2-2
	c1.5,0,2.7,0.4,3.7,1.3c1,0.9,1.5,2,1.5,3.3c0,1.3-0.3,2.3-1,3c-0.7,0.8-1.5,1.1-2.6,1.1s-2.2-0.4-3.4-1.3c-1.2-0.8-2.1-1.3-2.6-1.3
	c-0.9,0-1.9,0.4-2.9,1.3s-2.2,2.4-3.7,4.4v23c0,2.5,0.5,4.2,1.5,5.1s3.1,1.4,6.2,1.5v1.7H149V317.6z"/>
<path id="XMLID_20_" d="M221.5,301.7l1.6,1c-2.5,5.4-5.4,9.4-8.7,12.1c-3.3,2.6-7.1,4-11.4,4c-5.4,0-9.7-2-13.1-5.9
	s-5.1-9.1-5.1-15.4c0-7,1.8-12.6,5.4-16.9c3.6-4.3,8.4-6.4,14.2-6.4c4.7,0,8.6,1.5,11.5,4.5s4.5,7.1,4.8,12.3h-29.2v1
	c0,6,1.4,10.8,4.2,14.4c2.8,3.6,6.5,5.4,11.1,5.4c2.9,0,5.5-0.8,7.9-2.5C217.3,307.5,219.5,305,221.5,301.7z M192,288.3h17.4
	c1.1,0,1.8-0.1,2.1-0.3c0.2-0.2,0.4-0.6,0.4-1.3c0-2.8-0.9-5-2.6-6.9c-1.7-1.8-3.9-2.7-6.5-2.7c-3,0-5.5,1-7.4,2.9
	S192.4,284.7,192,288.3z"/>
<path id="XMLID_23_" d="M229.9,299.4v-6.7h21.9v6.7H229.9z"/>
<path id="XMLID_25_" d="M259.6,318.1l-0.5-14.9h1.7c1,4.2,2.6,7.4,4.7,9.6c2.2,2.3,4.7,3.4,7.6,3.4c2.3,0,4.2-0.6,5.6-1.9
	c1.4-1.3,2.1-2.9,2.1-5c0-1.5-0.5-2.9-1.4-4c-0.9-1.2-2.6-2.4-4.9-3.8l-8-4.6c-2.7-1.6-4.7-3.2-5.9-5.1c-1.2-1.8-1.8-3.9-1.8-6.4
	c0-3.4,1.2-6.2,3.5-8.3c2.4-2.2,5.4-3.3,9-3.3c1.8,0,3.6,0.3,5.6,0.8c1.9,0.5,3,0.8,3.3,0.8c0.4,0,0.8-0.1,1.1-0.4
	c0.3-0.3,0.5-0.6,0.7-1.1h1.5l0.6,12.9h-1.7c-0.6-3.3-1.8-5.9-3.6-7.8s-4-2.8-6.7-2.8c-2.1,0-3.7,0.5-5,1.6
	c-1.3,1.1-1.9,2.5-1.9,4.2c0,1.5,0.5,2.9,1.5,4.1c1,1.2,2.5,2.4,4.7,3.6l7.9,4.3c2.7,1.5,4.7,3.2,6,5.1s2,4.2,2,6.7
	c0,3.7-1.2,6.7-3.7,9.1c-2.4,2.4-5.6,3.6-9.4,3.6c-1.8,0-3.9-0.3-6.4-0.9c-2.5-0.6-4-0.9-4.6-0.9s-1.1,0.1-1.5,0.3s-0.6,0.6-0.7,1.1
	L259.6,318.1L259.6,318.1z"/>
<path id="XMLID_27_" d="M291.9,278.5v-1.2c2.8-1.7,5.3-3.7,7.4-6.2s3.8-5.3,5.2-8.6h1.7v12.8h10.1v3.2h-10.1V307c0,2.3,0.3,4,1,4.9
	c0.6,0.9,1.8,1.4,3.3,1.4c1.1,0,2.1-0.3,3.1-0.8s2-1.3,3-2.3l1.2,1.3c-1.8,2.5-3.5,4.3-5.3,5.4s-3.8,1.7-6,1.7
	c-2.8,0-4.9-0.8-6.2-2.4c-1.3-1.6-2-4.1-2-7.5v-30.2H291.9z"/>
<path id="XMLID_29_" d="M343.2,318.7c-6.2,0-11.2-2.1-15.1-6.2c-3.9-4.1-5.8-9.4-5.8-16c0-6.7,2-12.1,6.1-16.3s9.3-6.3,15.8-6.3
	c6.3,0,11.3,2,15.1,6s5.6,9.3,5.6,15.9c0,7-2,12.5-5.9,16.7C355.1,316.6,349.8,318.7,343.2,318.7z M330.8,293.4
	c0,6.7,1.3,12.2,3.8,16.3c2.6,4.2,5.9,6.3,9.9,6.3c4,0,7-1.4,8.9-4.1c1.9-2.7,2.9-6.8,2.9-12.3c0-7-1.3-12.6-3.9-16.8
	c-2.6-4.2-5.9-6.4-10-6.4c-3.7,0-6.6,1.5-8.6,4.5C331.9,283.8,330.8,288,330.8,293.4z"/>
<path id="XMLID_32_" d="M370.4,317.6v-1.7c2.8-0.2,4.6-0.8,5.6-1.8s1.5-2.9,1.5-5.6v-22c0-2.6-0.4-4.3-1.1-5.1
	c-0.7-0.8-2.2-1.1-4.3-1.1h-1.5v-1.7c3.4-1,6.2-1.8,8.6-2.6c2.4-0.8,4.4-1.4,6.2-2.1v8.4c2.1-2.7,4.1-4.8,5.9-6.1
	c1.8-1.3,3.5-2,5.2-2c1.5,0,2.7,0.4,3.7,1.3c1,0.9,1.5,2,1.5,3.3c0,1.3-0.3,2.3-1,3c-0.7,0.8-1.5,1.1-2.6,1.1s-2.2-0.4-3.4-1.3
	c-1.2-0.8-2.1-1.3-2.6-1.3c-0.9,0-1.9,0.4-2.9,1.3s-2.2,2.4-3.7,4.4v23c0,2.5,0.5,4.2,1.5,5.1s3.1,1.4,6.2,1.5v1.7h-22.8V317.6z"/>
<path id="XMLID_34_" d="M442.9,301.7l1.6,1c-2.5,5.4-5.4,9.4-8.7,12.1c-3.3,2.6-7.1,4-11.4,4c-5.4,0-9.7-2-13.1-5.9
	c-3.4-3.9-5.1-9.1-5.1-15.4c0-7,1.8-12.6,5.4-16.9c3.6-4.3,8.4-6.4,14.2-6.4c4.7,0,8.6,1.5,11.5,4.5s4.5,7.1,4.8,12.3h-29.2v1
	c0,6,1.4,10.8,4.2,14.4s6.5,5.4,11.1,5.4c2.9,0,5.5-0.8,7.9-2.5C438.7,307.5,440.9,305,442.9,301.7z M413.4,288.3h17.4
	c1.1,0,1.8-0.1,2.1-0.3c0.2-0.2,0.4-0.6,0.4-1.3c0-2.8-0.9-5-2.6-6.9c-1.7-1.8-3.9-2.7-6.5-2.7c-3,0-5.5,1-7.4,2.9
	S413.7,284.7,413.4,288.3z"/>
</svg>
